<svg xmlns="http://www.w3.org/2000/svg" viewBox="0 0 256 64">
<rect x="0" y="0" width="256" height="1" fill="#e1ffff" opacity="0.0000"/>
<rect x="0" y="1" width="256" height="1" fill="#e1ffff" opacity="0.0118"/>
<rect x="0" y="2" width="256" height="1" fill="#e1ffff" opacity="0.0235"/>
<rect x="0" y="3" width="256" height="1" fill="#e1ffff" opacity="0.0353"/>
<rect x="0" y="4" width="256" height="1" fill="#e1ffff" opacity="0.0510"/>
<rect x="0" y="5" width="256" height="1" fill="#e1ffff" opacity="0.0706"/>
<rect x="0" y="6" width="256" height="1" fill="#e1ffff" opacity="0.0902"/>
<rect x="0" y="7" width="256" height="1" fill="#e1ffff" opacity="0.1137"/>
<rect x="0" y="8" width="256" height="1" fill="#e1ffff" opacity="0.1373"/>
<rect x="0" y="9" width="256" height="1" fill="#e1ffff" opacity="0.1608"/>
<rect x="0" y="10" width="256" height="1" fill="#e1ffff" opacity="0.1882"/>
<rect x="0" y="11" width="256" height="1" fill="#e1ffff" opacity="0.2157"/>
<rect x="0" y="12" width="256" height="1" fill="#e1ffff" opacity="0.2431"/>
<rect x="0" y="13" width="256" height="1" fill="#e1ffff" opacity="0.2745"/>
<rect x="0" y="14" width="256" height="1" fill="#e1ffff" opacity="0.3059"/>
<rect x="0" y="15" width="256" height="1" fill="#e1ffff" opacity="0.3373"/>
<rect x="0" y="16" width="256" height="1" fill="#e1ffff" opacity="0.3686"/>
<rect x="0" y="17" width="256" height="1" fill="#e1ffff" opacity="0.4039"/>
<rect x="0" y="18" width="256" height="1" fill="#e1ffff" opacity="0.4392"/>
<rect x="0" y="19" width="256" height="1" fill="#e1ffff" opacity="0.4745"/>
<rect x="0" y="20" width="256" height="1" fill="#e1ffff" opacity="0.5137"/>
<rect x="0" y="21" width="256" height="1" fill="#e1ffff" opacity="0.5490"/>
<rect x="0" y="22" width="256" height="1" fill="#e1ffff" opacity="0.5882"/>
<rect x="0" y="23" width="256" height="1" fill="#e1ffff" opacity="0.6275"/>
<rect x="0" y="24" width="256" height="1" fill="#e1ffff" opacity="0.6706"/>
<rect x="0" y="25" width="256" height="1" fill="#e1ffff" opacity="0.7098"/>
<rect x="0" y="26" width="256" height="1" fill="#e1ffff" opacity="0.7529"/>
<rect x="0" y="27" width="256" height="1" fill="#e1ffff" opacity="0.7961"/>
<rect x="0" y="28" width="256" height="1" fill="#e1ffff" opacity="0.8392"/>
<rect x="0" y="29" width="256" height="1" fill="#e1ffff" opacity="0.8863"/>
<rect x="0" y="30" width="256" height="1" fill="#e1ffff" opacity="0.9294"/>
<rect x="0" y="31" width="256" height="1" fill="#e1ffff" opacity="0.9765"/>
<rect x="0" y="32" width="256" height="1" fill="#e1ffff" opacity="0.9765"/>
<rect x="0" y="33" width="256" height="1" fill="#e1ffff" opacity="0.9294"/>
<rect x="0" y="34" width="256" height="1" fill="#e1ffff" opacity="0.8863"/>
<rect x="0" y="35" width="256" height="1" fill="#e1ffff" opacity="0.8392"/>
<rect x="0" y="36" width="256" height="1" fill="#e1ffff" opacity="0.7961"/>
<rect x="0" y="37" width="256" height="1" fill="#e1ffff" opacity="0.7529"/>
<rect x="0" y="38" width="256" height="1" fill="#e1ffff" opacity="0.7098"/>
<rect x="0" y="39" width="256" height="1" fill="#e1ffff" opacity="0.6706"/>
<rect x="0" y="40" width="256" height="1" fill="#e1ffff" opacity="0.6275"/>
<rect x="0" y="41" width="256" height="1" fill="#e1ffff" opacity="0.5882"/>
<rect x="0" y="42" width="256" height="1" fill="#e1ffff" opacity="0.5490"/>
<rect x="0" y="43" width="256" height="1" fill="#e1ffff" opacity="0.5137"/>
<rect x="0" y="44" width="256" height="1" fill="#e1ffff" opacity="0.4745"/>
<rect x="0" y="45" width="256" height="1" fill="#e1ffff" opacity="0.4392"/>
<rect x="0" y="46" width="256" height="1" fill="#e1ffff" opacity="0.4039"/>
<rect x="0" y="47" width="256" height="1" fill="#e1ffff" opacity="0.3686"/>
<rect x="0" y="48" width="256" height="1" fill="#e1ffff" opacity="0.3373"/>
<rect x="0" y="49" width="256" height="1" fill="#e1ffff" opacity="0.3059"/>
<rect x="0" y="50" width="256" height="1" fill="#e1ffff" opacity="0.2745"/>
<rect x="0" y="51" width="256" height="1" fill="#e1ffff" opacity="0.2431"/>
<rect x="0" y="52" width="256" height="1" fill="#e1ffff" opacity="0.2157"/>
<rect x="0" y="53" width="256" height="1" fill="#e1ffff" opacity="0.1882"/>
<rect x="0" y="54" width="256" height="1" fill="#e1ffff" opacity="0.1608"/>
<rect x="0" y="55" width="256" height="1" fill="#e1ffff" opacity="0.1373"/>
<rect x="0" y="56" width="256" height="1" fill="#e1ffff" opacity="0.1137"/>
<rect x="0" y="57" width="256" height="1" fill="#e1ffff" opacity="0.0902"/>
<rect x="0" y="58" width="256" height="1" fill="#e1ffff" opacity="0.0706"/>
<rect x="0" y="59" width="256" height="1" fill="#e1ffff" opacity="0.0510"/>
<rect x="0" y="60" width="256" height="1" fill="#e1ffff" opacity="0.0353"/>
<rect x="0" y="61" width="256" height="1" fill="#e1ffff" opacity="0.0235"/>
<rect x="0" y="62" width="256" height="1" fill="#e1ffff" opacity="0.0118"/>
<rect x="0" y="63" width="256" height="1" fill="#e1ffff" opacity="0.0000"/>
</svg>
