<svg xmlns="http://www.w3.org/2000/svg" viewBox="0 0 2048 512">
<g id="frame-00" transform="translate(0,0)">
<polygon points="208.00,5.00 304.00,5.00 335.00,40.00 335.00,133.00 305.00,162.00 207.00,162.00 177.00,133.00 177.00,40.00" fill="#0b1223" opacity="1.000" stroke="#52e9f5" stroke-width="8.0" stroke-linejoin="round"/>
<polygon points="197.00,49.00 315.00,49.00 315.00,99.00 293.00,119.00 197.00,119.00" fill="#52e9f5" opacity="1.000"/>
<polygon points="210.00,60.00 301.00,60.00 301.00,72.00 210.00,72.00" fill="#d5fcff" opacity="1.000"/>
<polygon points="280.00,88.00 303.00,88.00 303.00,100.00 280.00,100.00" fill="#0b1223" opacity="1.000"/>
<polygon points="204.00,174.00 308.00,174.00 346.00,211.00 324.00,340.00 188.00,340.00 166.00,211.00" fill="#19283c" opacity="1.000" stroke="#34465e" stroke-width="7.0" stroke-linejoin="round"/>
<polyline points="207.00,181.00 226.00,209.00 286.00,209.00 305.00,181.00" fill="none" opacity="1.000" stroke="#52e9f5" stroke-width="8.0" stroke-linejoin="round"/>
<polygon points="256.00,226.00 281.00,261.00 256.00,299.00 231.00,261.00" fill="#52e9f5" opacity="1.000"/>
<polygon points="256.00,240.00 267.00,260.00 256.00,283.00 245.00,260.00" fill="#d5fcff" opacity="1.000"/>
<polygon points="165.00,206.00 189.00,221.00 182.00,315.00 152.00,306.00 143.00,237.00" fill="#0b1223" opacity="1.000" stroke="#52e9f5" stroke-width="5.0" stroke-linejoin="round"/>
<polygon points="347.00,206.00 369.00,237.00 360.00,306.00 330.00,315.00 323.00,221.00" fill="#0b1223" opacity="1.000" stroke="#52e9f5" stroke-width="5.0" stroke-linejoin="round"/>
<polygon points="191.00,323.00 321.00,323.00 321.00,339.00 191.00,339.00" fill="#9165ec" opacity="1.000"/>
<polygon points="192.00,348.00 248.00,348.00 242.00,464.00 224.00,496.00 160.00,496.00 160.00,474.00 185.00,456.00" fill="#19283c" opacity="1.000" stroke="#52e9f5" stroke-width="5.0" stroke-linejoin="round"/>
<polygon points="264.00,348.00 320.00,348.00 327.00,456.00 352.00,474.00 352.00,496.00 288.00,496.00 270.00,464.00" fill="#19283c" opacity="1.000" stroke="#52e9f5" stroke-width="5.0" stroke-linejoin="round"/>
<polygon points="162.00,478.00 226.00,478.00 226.00,497.00 162.00,497.00" fill="#0b1223" opacity="1.000"/>
<polygon points="286.00,478.00 350.00,478.00 350.00,497.00 286.00,497.00" fill="#0b1223" opacity="1.000"/>
</g>
<g id="frame-01" transform="translate(512,0)">
<polygon points="208.00,3.00 304.00,3.00 335.00,38.00 335.00,131.00 305.00,160.00 207.00,160.00 177.00,131.00 177.00,38.00" fill="#0b1223" opacity="1.000" stroke="#52e9f5" stroke-width="8.0" stroke-linejoin="round"/>
<polygon points="197.00,47.00 315.00,47.00 315.00,97.00 293.00,117.00 197.00,117.00" fill="#52e9f5" opacity="1.000"/>
<polygon points="210.00,58.00 301.00,58.00 301.00,70.00 210.00,70.00" fill="#d5fcff" opacity="1.000"/>
<polygon points="280.00,86.00 303.00,86.00 303.00,98.00 280.00,98.00" fill="#0b1223" opacity="1.000"/>
<polygon points="204.00,172.00 308.00,172.00 346.00,209.00 324.00,338.00 188.00,338.00 166.00,209.00" fill="#19283c" opacity="1.000" stroke="#34465e" stroke-width="7.0" stroke-linejoin="round"/>
<polyline points="207.00,179.00 226.00,207.00 286.00,207.00 305.00,179.00" fill="none" opacity="1.000" stroke="#52e9f5" stroke-width="8.0" stroke-linejoin="round"/>
<polygon points="256.00,224.00 281.00,259.00 256.00,297.00 231.00,259.00" fill="#52e9f5" opacity="1.000"/>
<polygon points="256.00,238.00 267.00,258.00 256.00,281.00 245.00,258.00" fill="#d5fcff" opacity="1.000"/>
<polygon points="164.76,204.42 189.27,218.58 185.56,312.76 155.26,304.82 143.86,236.17" fill="#0b1223" opacity="1.000" stroke="#52e9f5" stroke-width="5.0" stroke-linejoin="round"/>
<polygon points="347.24,204.39 368.14,236.14 356.74,304.78 326.44,312.73 322.73,218.54" fill="#0b1223" opacity="1.000" stroke="#52e9f5" stroke-width="5.0" stroke-linejoin="round"/>
<polygon points="191.00,321.00 321.00,321.00 321.00,337.00 191.00,337.00" fill="#9165ec" opacity="1.000"/>
<polygon points="192.00,346.00 248.00,346.00 242.00,462.00 224.00,494.00 160.00,494.00 160.00,472.00 185.00,454.00" fill="#19283c" opacity="1.000" stroke="#52e9f5" stroke-width="5.0" stroke-linejoin="round"/>
<polygon points="264.00,346.00 320.00,346.00 327.00,454.00 352.00,472.00 352.00,494.00 288.00,494.00 270.00,462.00" fill="#19283c" opacity="1.000" stroke="#52e9f5" stroke-width="5.0" stroke-linejoin="round"/>
<polygon points="162.00,476.00 226.00,476.00 226.00,495.00 162.00,495.00" fill="#0b1223" opacity="1.000"/>
<polygon points="286.00,476.00 350.00,476.00 350.00,495.00 286.00,495.00" fill="#0b1223" opacity="1.000"/>
</g>
<g id="frame-02" transform="translate(1024,0)">
<polygon points="208.00,5.00 304.00,5.00 335.00,40.00 335.00,133.00 305.00,162.00 207.00,162.00 177.00,133.00 177.00,40.00" fill="#0b1223" opacity="1.000" stroke="#52e9f5" stroke-width="8.0" stroke-linejoin="round"/>
<polygon points="197.00,49.00 315.00,49.00 315.00,99.00 293.00,119.00 197.00,119.00" fill="#52e9f5" opacity="1.000"/>
<polygon points="210.00,60.00 301.00,60.00 301.00,72.00 210.00,72.00" fill="#d5fcff" opacity="1.000"/>
<polygon points="280.00,88.00 303.00,88.00 303.00,100.00 280.00,100.00" fill="#0b1223" opacity="1.000"/>
<polygon points="204.00,174.00 308.00,174.00 346.00,211.00 324.00,340.00 188.00,340.00 166.00,211.00" fill="#19283c" opacity="1.000" stroke="#34465e" stroke-width="7.0" stroke-linejoin="round"/>
<polyline points="207.00,181.00 226.00,209.00 286.00,209.00 305.00,181.00" fill="none" opacity="1.000" stroke="#52e9f5" stroke-width="8.0" stroke-linejoin="round"/>
<polygon points="256.00,226.00 281.00,261.00 256.00,299.00 231.00,261.00" fill="#52e9f5" opacity="1.000"/>
<polygon points="256.00,240.00 267.00,260.00 256.00,283.00 245.00,260.00" fill="#d5fcff" opacity="1.000"/>
<polygon points="165.00,206.00 189.00,221.00 182.00,315.00 152.00,306.00 143.00,237.00" fill="#0b1223" opacity="1.000" stroke="#52e9f5" stroke-width="5.0" stroke-linejoin="round"/>
<polygon points="347.00,206.00 369.00,237.00 360.00,306.00 330.00,315.00 323.00,221.00" fill="#0b1223" opacity="1.000" stroke="#52e9f5" stroke-width="5.0" stroke-linejoin="round"/>
<polygon points="191.00,323.00 321.00,323.00 321.00,339.00 191.00,339.00" fill="#9165ec" opacity="1.000"/>
<polygon points="192.00,348.00 248.00,348.00 242.00,464.00 224.00,496.00 160.00,496.00 160.00,474.00 185.00,456.00" fill="#19283c" opacity="1.000" stroke="#52e9f5" stroke-width="5.0" stroke-linejoin="round"/>
<polygon points="264.00,348.00 320.00,348.00 327.00,456.00 352.00,474.00 352.00,496.00 288.00,496.00 270.00,464.00" fill="#19283c" opacity="1.000" stroke="#52e9f5" stroke-width="5.0" stroke-linejoin="round"/>
<polygon points="162.00,478.00 226.00,478.00 226.00,497.00 162.00,497.00" fill="#0b1223" opacity="1.000"/>
<polygon points="286.00,478.00 350.00,478.00 350.00,497.00 286.00,497.00" fill="#0b1223" opacity="1.000"/>
</g>
<g id="frame-03" transform="translate(1536,0)">
<polygon points="208.00,7.00 304.00,7.00 335.00,42.00 335.00,135.00 305.00,164.00 207.00,164.00 177.00,135.00 177.00,42.00" fill="#0b1223" opacity="1.000" stroke="#52e9f5" stroke-width="8.0" stroke-linejoin="round"/>
<polygon points="197.00,51.00 315.00,51.00 315.00,101.00 293.00,121.00 197.00,121.00" fill="#52e9f5" opacity="1.000"/>
<polygon points="210.00,62.00 301.00,62.00 301.00,74.00 210.00,74.00" fill="#d5fcff" opacity="1.000"/>
<polygon points="280.00,90.00 303.00,90.00 303.00,102.00 280.00,102.00" fill="#0b1223" opacity="1.000"/>
<polygon points="204.00,176.00 308.00,176.00 346.00,213.00 324.00,342.00 188.00,342.00 166.00,213.00" fill="#19283c" opacity="1.000" stroke="#34465e" stroke-width="7.0" stroke-linejoin="round"/>
<polyline points="207.00,183.00 226.00,211.00 286.00,211.00 305.00,183.00" fill="none" opacity="1.000" stroke="#52e9f5" stroke-width="8.0" stroke-linejoin="round"/>
<polygon points="256.00,228.00 281.00,263.00 256.00,301.00 231.00,263.00" fill="#52e9f5" opacity="1.000"/>
<polygon points="256.00,242.00 267.00,262.00 256.00,285.00 245.00,262.00" fill="#d5fcff" opacity="1.000"/>
<polygon points="165.25,207.59 188.71,223.41 178.44,317.11 148.77,307.07 142.18,237.80" fill="#0b1223" opacity="1.000" stroke="#52e9f5" stroke-width="5.0" stroke-linejoin="round"/>
<polygon points="346.75,207.62 369.82,237.83 363.23,307.11 333.56,317.15 323.29,223.45" fill="#0b1223" opacity="1.000" stroke="#52e9f5" stroke-width="5.0" stroke-linejoin="round"/>
<polygon points="191.00,325.00 321.00,325.00 321.00,341.00 191.00,341.00" fill="#9165ec" opacity="1.000"/>
<polygon points="192.00,350.00 248.00,350.00 242.00,466.00 224.00,498.00 160.00,498.00 160.00,476.00 185.00,458.00" fill="#19283c" opacity="1.000" stroke="#52e9f5" stroke-width="5.0" stroke-linejoin="round"/>
<polygon points="264.00,350.00 320.00,350.00 327.00,458.00 352.00,476.00 352.00,498.00 288.00,498.00 270.00,466.00" fill="#19283c" opacity="1.000" stroke="#52e9f5" stroke-width="5.0" stroke-linejoin="round"/>
<polygon points="162.00,480.00 226.00,480.00 226.00,499.00 162.00,499.00" fill="#0b1223" opacity="1.000"/>
<polygon points="286.00,480.00 350.00,480.00 350.00,499.00 286.00,499.00" fill="#0b1223" opacity="1.000"/>
</g>
</svg>
